<svg xmlns="http://www.w3.org/2000/svg" xmlns:xlink="http://www.w3.org/1999/xlink" xmlns:lucid="lucid" width="1392.5" height="576.37"><g transform="translate(-159 -80)" lucid:page-tab-id="0_0"><path d="M240 228c0-4.42 3.58-8 8-8h504c4.42 0 8 3.58 8 8v304c0 4.42-3.58 8-8 8H248c-4.42 0-8-3.58-8-8z" fill="#fff"/><path d="M240 180h520v40H240z" fill="#ccc"/><path d="M240 188c0-4.42 3.58-8 8-8h504c4.42 0 8 3.58 8 8v344c0 4.42-3.58 8-8 8H248c-4.42 0-8-3.58-8-8zM240 220h520M300 220v320M530 220v320" stroke="#000" fill="none"/><use xlink:href="#a" transform="matrix(1,0,0,1,250,180) translate(225.05 23.6)"/><use xlink:href="#b" transform="matrix(1,0,0,1,245,222.5) translate(13 17.1)"/><use xlink:href="#c" transform="matrix(1,0,0,1,305,222.5) translate(101.025 17.1)"/><use xlink:href="#d" transform="matrix(1,0,0,1,535,222.5) translate(71.1 17.1)"/><use xlink:href="#e" transform="matrix(1,0,0,1,305,254.5) translate(53.12499999999999 17.1)"/><use xlink:href="#f" transform="matrix(1,0,0,1,535,254.5) translate(54.12499999999999 17.1)"/><use xlink:href="#g" transform="matrix(1,0,0,1,305,286.5) translate(56.574999999999996 17.1)"/><use xlink:href="#f" transform="matrix(1,0,0,1,535,286.5) translate(54.12499999999999 17.1)"/><use xlink:href="#h" transform="matrix(1,0,0,1,305,318.5) translate(83.025 17.1)"/><use xlink:href="#i" transform="matrix(1,0,0,1,535,318.5) translate(52.574999999999996 17.1)"/><use xlink:href="#j" transform="matrix(1,0,0,1,305,350.5) translate(65.07499999999999 17.1)"/><use xlink:href="#k" transform="matrix(1,0,0,1,535,350.5) translate(50.574999999999996 17.1)"/><use xlink:href="#l" transform="matrix(1,0,0,1,305,382.5) translate(78.05 17.1)"/><use xlink:href="#m" transform="matrix(1,0,0,1,535,382.5) translate(54.12499999999999 17.1)"/><use xlink:href="#n" transform="matrix(1,0,0,1,305,414.5) translate(94.5 17.1)"/><use xlink:href="#o" transform="matrix(1,0,0,1,535,414.5) translate(56.599999999999994 17.1)"/><use xlink:href="#p" transform="matrix(1,0,0,1,245,446.5) translate(13.524999999999999 17.1)"/><use xlink:href="#q" transform="matrix(1,0,0,1,305,446.5) translate(66.05 17.1)"/><use xlink:href="#r" transform="matrix(1,0,0,1,535,446.5) translate(5.3500000000000085 17.1)"/><use xlink:href="#p" transform="matrix(1,0,0,1,245,478.5) translate(13.524999999999999 17.1)"/><use xlink:href="#s" transform="matrix(1,0,0,1,305,478.5) translate(60.24999999999999 17.1)"/><use xlink:href="#r" transform="matrix(1,0,0,1,535,478.5) translate(5.3500000000000085 17.1)"/><use xlink:href="#p" transform="matrix(1,0,0,1,245,510.5) translate(13.524999999999999 17.1)"/><use xlink:href="#t" transform="matrix(1,0,0,1,305,510.5) translate(8.875000000000014 17.1)"/><use xlink:href="#r" transform="matrix(1,0,0,1,535,510.5) translate(5.3500000000000085 17.1)"/><path d="M980 148c0-4.42 3.58-8 8-8h504c4.42 0 8 3.58 8 8v176c0 4.42-3.58 8-8 8H988c-4.42 0-8-3.58-8-8z" fill="#fff"/><path d="M980 100h520v40H980z" fill="#ccc"/><path d="M980 108c0-4.42 3.58-8 8-8h504c4.42 0 8 3.58 8 8v216c0 4.42-3.58 8-8 8H988c-4.42 0-8-3.58-8-8zM980 140h520M1040 140v192M1270 140v192" stroke="#000" fill="none"/><use xlink:href="#u" transform="matrix(1,0,0,1,990,100) translate(225.525 23.6)"/><use xlink:href="#b" transform="matrix(1,0,0,1,985,142.5) translate(13 17.1)"/><use xlink:href="#c" transform="matrix(1,0,0,1,1045,142.5) translate(101.025 17.1)"/><use xlink:href="#d" transform="matrix(1,0,0,1,1275,142.5) translate(71.1 17.1)"/><use xlink:href="#v" transform="matrix(1,0,0,1,985,174.5) translate(13.524999999999999 17.1)"/><use xlink:href="#w" transform="matrix(1,0,0,1,1045,174.5) translate(72.1 17.1)"/><use xlink:href="#x" transform="matrix(1,0,0,1,1275,174.5) translate(46.074999999999996 17.1)"/><use xlink:href="#y" transform="matrix(1,0,0,1,1045,206.5) translate(85.55 17.1)"/><use xlink:href="#f" transform="matrix(1,0,0,1,1275,206.5) translate(54.12499999999999 17.1)"/><use xlink:href="#z" transform="matrix(1,0,0,1,1045,238.5) translate(66.625 17.1)"/><use xlink:href="#m" transform="matrix(1,0,0,1,1275,238.5) translate(54.12499999999999 17.1)"/><use xlink:href="#A" transform="matrix(1,0,0,1,1045,270.5) translate(81.025 17.1)"/><use xlink:href="#k" transform="matrix(1,0,0,1,1275,270.5) translate(50.574999999999996 17.1)"/><use xlink:href="#B" transform="matrix(1,0,0,1,1045,302.5) translate(51.974999999999994 17.1)"/><use xlink:href="#C" transform="matrix(1,0,0,1,1275,302.5) translate(29.825000000000003 17.1)"/><path d="M980 516.37c0-4.42 3.58-8 8-8h504c4.42 0 8 3.58 8 8v112c0 4.42-3.58 8-8 8H988c-4.42 0-8-3.58-8-8z" fill="#fff"/><path d="M980 468.37h520v40H980z" fill="#ccc"/><path d="M980 476.37c0-4.42 3.58-8 8-8h504c4.42 0 8 3.58 8 8v152c0 4.42-3.58 8-8 8H988c-4.42 0-8-3.58-8-8zM980 508.37h520M1040 508.37v128M1270 508.37v128" stroke="#000" fill="none"/><use xlink:href="#D" transform="matrix(1,0,0,1,990,468.36923076923074) translate(203.625 23.6)"/><use xlink:href="#b" transform="matrix(1,0,0,1,985,510.86923076923074) translate(13 17.1)"/><use xlink:href="#c" transform="matrix(1,0,0,1,1045,510.86923076923074) translate(101.025 17.1)"/><use xlink:href="#d" transform="matrix(1,0,0,1,1275,510.86923076923074) translate(71.1 17.1)"/><use xlink:href="#v" transform="matrix(1,0,0,1,985,542.8692307692307) translate(13.524999999999999 17.1)"/><use xlink:href="#w" transform="matrix(1,0,0,1,1045,542.8692307692307) translate(72.1 17.1)"/><use xlink:href="#x" transform="matrix(1,0,0,1,1275,542.8692307692307) translate(46.074999999999996 17.1)"/><use xlink:href="#v" transform="matrix(1,0,0,1,985,574.8692307692307) translate(13.524999999999999 17.1)"/><use xlink:href="#E" transform="matrix(1,0,0,1,1045,574.8692307692307) translate(85.525 17.1)"/><use xlink:href="#x" transform="matrix(1,0,0,1,1275,574.8692307692307) translate(46.074999999999996 17.1)"/><use xlink:href="#z" transform="matrix(1,0,0,1,1045,606.8692307692307) translate(66.625 17.1)"/><use xlink:href="#m" transform="matrix(1,0,0,1,1275,606.8692307692307) translate(54.12499999999999 17.1)"/><path d="M780.5 236H864c3.3 0 6-2.7 6-6v-36c0-3.3 2.7-6 6-6h83.5" stroke="#5e5e5e" stroke-width="2" fill="none"/><path d="M780.5 246v-20M760.5 236h20M979.05 198l-20-10 20-10M979.05 188h-20M959.05 178v20" stroke="#5e5e5e" stroke-width="2" fill="#fff"/><path d="M780.5 236H864c3.3 0 6 2.7 6 6v308.37c0 3.3 2.7 6 6 6h83.5" stroke="#5e5e5e" stroke-width="2" fill="none"/><path d="M770.5 246v-20M760.5 236h20M780.5 246v-20M979.05 566.37l-20-10 20-10M979.05 556.37h-20M959.05 546.37v20" stroke="#5e5e5e" stroke-width="2" fill="#fff"/><path d="M1520.5 156h14c3.3 0 6 2.7 6 6v420.37c0 3.3-2.7 6-6 6h-14" stroke="#5e5e5e" stroke-width="2" fill="none"/><path d="M1510.5 166v-20M1500.5 156h20M1520.5 166v-20M1500.95 578.37l20 10-20 10M1500.95 588.37h20M1520.95 598.37v-20" stroke="#5e5e5e" stroke-width="2" fill="#fff"/><path d="M220.68 460H176c-3.3 0-6-2.7-6-6V242c0-3.3 2.7-6 6-6h44.68" stroke="#5e5e5e" stroke-width="2" fill="none"/><path d="M239.05 470l-20-10 20-10M239.05 460h-20M239.05 246l-20-10 20-10M239.05 236h-20" stroke="#5e5e5e" stroke-width="2" fill="#fff"/><path d="M779.32 492H894c3.3 0 6-2.7 6-6V162c0-3.3 2.7-6 6-6h54.68" stroke="#5e5e5e" stroke-width="2" fill="none"/><path d="M760.95 482l20 10-20 10M760.95 492h20M979.05 166l-20-10 20-10M979.05 156h-20" stroke="#5e5e5e" stroke-width="2" fill="#fff"/><path d="M779.32 524h90.5c.1 0 .18.08.18.18 0 .1.08.2.18.2h90.5" stroke="#5e5e5e" stroke-width="2" fill="none"/><path d="M760.95 514l20 10-20 10M760.95 524h20M979.05 534.37l-20-10 20-10M979.05 524.37h-20" stroke="#5e5e5e" stroke-width="2" fill="#fff"/><defs><path fill="#333" d="M232-93c-1 65-40 97-104 97C67 4 28-28 28-90v-158h33c8 89-33 224 67 224 102 0 64-133 71-224h33v155" id="F"/><path fill="#333" d="M185-189c-5-48-123-54-124 2 14 75 158 14 163 119 3 78-121 87-175 55-17-10-28-26-33-46l33-7c5 56 141 63 141-1 0-78-155-14-162-118-5-82 145-84 179-34 5 7 8 16 11 25" id="G"/><path fill="#333" d="M30 0v-248h187v28H63v79h144v27H63v87h162V0H30" id="H"/><path fill="#333" d="M233-177c-1 41-23 64-60 70L243 0h-38l-65-103H63V0H30v-248c88 3 205-21 203 71zM63-129c60-2 137 13 137-47 0-61-80-42-137-45v92" id="I"/><g id="a"><use transform="matrix(0.05,0,0,0.05,0,0)" xlink:href="#F"/><use transform="matrix(0.05,0,0,0.05,12.950000000000001,0)" xlink:href="#G"/><use transform="matrix(0.05,0,0,0.05,24.950000000000003,0)" xlink:href="#H"/><use transform="matrix(0.05,0,0,0.05,36.95,0)" xlink:href="#I"/></g><path d="M30-248c87 1 191-15 191 75 0 78-77 80-158 76V0H30v-248zm33 125c57 0 124 11 124-50 0-59-68-47-124-48v98" id="J"/><path d="M194 0L95-120 63-95V0H30v-248h33v124l119-124h40L117-140 236 0h-42" id="K"/><g id="b"><use transform="matrix(0.05,0,0,0.05,0,0)" xlink:href="#J"/><use transform="matrix(0.05,0,0,0.05,12,0)" xlink:href="#K"/></g><path d="M33 0v-248h34V0H33" id="L"/><path d="M30-248c118-7 216 8 213 122C240-48 200 0 122 0H30v-248zM63-27c89 8 146-16 146-99s-60-101-146-95v194" id="M"/><g id="c"><use transform="matrix(0.05,0,0,0.05,0,0)" xlink:href="#L"/><use transform="matrix(0.05,0,0,0.05,5,0)" xlink:href="#M"/></g><path d="M190 0L58-211 59 0H30v-248h39L202-35l-2-213h31V0h-41" id="N"/><path d="M232-93c-1 65-40 97-104 97C67 4 28-28 28-90v-158h33c8 89-33 224 67 224 102 0 64-133 71-224h33v155" id="O"/><path d="M240 0l2-218c-23 76-54 145-80 218h-23L58-218 59 0H30v-248h44l77 211c21-75 51-140 76-211h43V0h-30" id="P"/><path d="M160-131c35 5 61 23 61 61C221 17 115-2 30 0v-248c76 3 177-17 177 60 0 33-19 50-47 57zm-97-11c50-1 110 9 110-42 0-47-63-36-110-37v79zm0 115c55-2 124 14 124-45 0-56-70-42-124-44v89" id="Q"/><path d="M30 0v-248h187v28H63v79h144v27H63v87h162V0H30" id="R"/><path d="M233-177c-1 41-23 64-60 70L243 0h-38l-65-103H63V0H30v-248c88 3 205-21 203 71zM63-129c60-2 137 13 137-47 0-61-80-42-137-45v92" id="S"/><g id="d"><use transform="matrix(0.05,0,0,0.05,0,0)" xlink:href="#N"/><use transform="matrix(0.05,0,0,0.05,12.950000000000001,0)" xlink:href="#O"/><use transform="matrix(0.05,0,0,0.05,25.900000000000002,0)" xlink:href="#P"/><use transform="matrix(0.05,0,0,0.05,40.85,0)" xlink:href="#Q"/><use transform="matrix(0.05,0,0,0.05,52.85,0)" xlink:href="#R"/><use transform="matrix(0.05,0,0,0.05,64.85,0)" xlink:href="#S"/></g><path d="M63-220v92h138v28H63V0H30v-248h175v28H63" id="T"/><path d="M185-189c-5-48-123-54-124 2 14 75 158 14 163 119 3 78-121 87-175 55-17-10-28-26-33-46l33-7c5 56 141 63 141-1 0-78-155-14-162-118-5-82 145-84 179-34 5 7 8 16 11 25" id="U"/><path d="M127-220V0H93v-220H8v-28h204v28h-85" id="V"/><path d="M-5 72V49h209v23H-5" id="W"/><path d="M205 0l-28-72H64L36 0H1l101-248h38L239 0h-34zm-38-99l-47-123c-12 45-31 82-46 123h93" id="X"/><g id="e"><use transform="matrix(0.05,0,0,0.05,0,0)" xlink:href="#T"/><use transform="matrix(0.05,0,0,0.05,10.950000000000001,0)" xlink:href="#L"/><use transform="matrix(0.05,0,0,0.05,15.950000000000001,0)" xlink:href="#S"/><use transform="matrix(0.05,0,0,0.05,28.900000000000002,0)" xlink:href="#U"/><use transform="matrix(0.05,0,0,0.05,40.900000000000006,0)" xlink:href="#V"/><use transform="matrix(0.05,0,0,0.05,51.85,0)" xlink:href="#W"/><use transform="matrix(0.05,0,0,0.05,61.85,0)" xlink:href="#N"/><use transform="matrix(0.05,0,0,0.05,74.80000000000001,0)" xlink:href="#X"/><use transform="matrix(0.05,0,0,0.05,86.80000000000001,0)" xlink:href="#P"/><use transform="matrix(0.05,0,0,0.05,101.75000000000001,0)" xlink:href="#R"/></g><path d="M212-179c-10-28-35-45-73-45-59 0-87 40-87 99 0 60 29 101 89 101 43 0 62-24 78-52l27 14C228-24 195 4 139 4 59 4 22-46 18-125c-6-104 99-153 187-111 19 9 31 26 39 46" id="Y"/><path d="M197 0v-115H63V0H30v-248h33v105h134v-105h34V0h-34" id="Z"/><path d="M30 0v-248h33v221h125V0H30" id="aa"/><g id="f"><use transform="matrix(0.05,0,0,0.05,0,0)" xlink:href="#Y"/><use transform="matrix(0.05,0,0,0.05,12.950000000000001,0)" xlink:href="#Z"/><use transform="matrix(0.05,0,0,0.05,25.900000000000002,0)" xlink:href="#X"/><use transform="matrix(0.05,0,0,0.05,37.900000000000006,0)" xlink:href="#S"/><use transform="matrix(0.05,0,0,0.05,50.85000000000001,0)" xlink:href="#W"/><use transform="matrix(0.05,0,0,0.05,60.85,0)" xlink:href="#T"/><use transform="matrix(0.05,0,0,0.05,71.80000000000001,0)" xlink:href="#L"/><use transform="matrix(0.05,0,0,0.05,76.80000000000001,0)" xlink:href="#R"/><use transform="matrix(0.05,0,0,0.05,88.80000000000001,0)" xlink:href="#aa"/><use transform="matrix(0.05,0,0,0.05,98.80000000000001,0)" xlink:href="#M"/></g><g id="g"><use transform="matrix(0.05,0,0,0.05,0,0)" xlink:href="#aa"/><use transform="matrix(0.05,0,0,0.05,10,0)" xlink:href="#X"/><use transform="matrix(0.05,0,0,0.05,22,0)" xlink:href="#U"/><use transform="matrix(0.05,0,0,0.05,34,0)" xlink:href="#V"/><use transform="matrix(0.05,0,0,0.05,44.95,0)" xlink:href="#W"/><use transform="matrix(0.05,0,0,0.05,54.95,0)" xlink:href="#N"/><use transform="matrix(0.05,0,0,0.05,67.9,0)" xlink:href="#X"/><use transform="matrix(0.05,0,0,0.05,79.9,0)" xlink:href="#P"/><use transform="matrix(0.05,0,0,0.05,94.85000000000001,0)" xlink:href="#R"/></g><g id="h"><use transform="matrix(0.05,0,0,0.05,0,0)" xlink:href="#R"/><use transform="matrix(0.05,0,0,0.05,12,0)" xlink:href="#P"/><use transform="matrix(0.05,0,0,0.05,26.950000000000003,0)" xlink:href="#X"/><use transform="matrix(0.05,0,0,0.05,38.95,0)" xlink:href="#L"/><use transform="matrix(0.05,0,0,0.05,43.95,0)" xlink:href="#aa"/></g><g id="i"><use transform="matrix(0.05,0,0,0.05,0,0)" xlink:href="#R"/><use transform="matrix(0.05,0,0,0.05,12,0)" xlink:href="#P"/><use transform="matrix(0.05,0,0,0.05,26.950000000000003,0)" xlink:href="#X"/><use transform="matrix(0.05,0,0,0.05,38.95,0)" xlink:href="#L"/><use transform="matrix(0.05,0,0,0.05,43.95,0)" xlink:href="#aa"/><use transform="matrix(0.05,0,0,0.05,53.95,0)" xlink:href="#W"/><use transform="matrix(0.05,0,0,0.05,63.95,0)" xlink:href="#T"/><use transform="matrix(0.05,0,0,0.05,74.9,0)" xlink:href="#L"/><use transform="matrix(0.05,0,0,0.05,79.9,0)" xlink:href="#R"/><use transform="matrix(0.05,0,0,0.05,91.9,0)" xlink:href="#aa"/><use transform="matrix(0.05,0,0,0.05,101.9,0)" xlink:href="#M"/></g><g id="j"><use transform="matrix(0.05,0,0,0.05,0,0)" xlink:href="#O"/><use transform="matrix(0.05,0,0,0.05,12.950000000000001,0)" xlink:href="#U"/><use transform="matrix(0.05,0,0,0.05,24.950000000000003,0)" xlink:href="#R"/><use transform="matrix(0.05,0,0,0.05,36.95,0)" xlink:href="#S"/><use transform="matrix(0.05,0,0,0.05,49.900000000000006,0)" xlink:href="#W"/><use transform="matrix(0.05,0,0,0.05,59.900000000000006,0)" xlink:href="#J"/><use transform="matrix(0.05,0,0,0.05,71.9,0)" xlink:href="#L"/><use transform="matrix(0.05,0,0,0.05,76.9,0)" xlink:href="#Y"/></g><path d="M143 4C61 4 22-44 18-125c-5-107 100-154 193-111 17 8 29 25 37 43l-32 9c-13-25-37-40-76-40-61 0-88 39-88 99 0 61 29 100 91 101 35 0 62-11 79-27v-45h-74v-28h105v86C228-13 192 4 143 4" id="ab"/><g id="k"><use transform="matrix(0.05,0,0,0.05,0,0)" xlink:href="#L"/><use transform="matrix(0.05,0,0,0.05,5,0)" xlink:href="#P"/><use transform="matrix(0.05,0,0,0.05,19.950000000000003,0)" xlink:href="#X"/><use transform="matrix(0.05,0,0,0.05,31.950000000000003,0)" xlink:href="#ab"/><use transform="matrix(0.05,0,0,0.05,45.95,0)" xlink:href="#R"/><use transform="matrix(0.05,0,0,0.05,57.95,0)" xlink:href="#W"/><use transform="matrix(0.05,0,0,0.05,67.95,0)" xlink:href="#T"/><use transform="matrix(0.05,0,0,0.05,78.9,0)" xlink:href="#L"/><use transform="matrix(0.05,0,0,0.05,83.9,0)" xlink:href="#R"/><use transform="matrix(0.05,0,0,0.05,95.9,0)" xlink:href="#aa"/><use transform="matrix(0.05,0,0,0.05,105.9,0)" xlink:href="#M"/></g><path d="M140-251c81 0 123 46 123 126C263-46 219 4 140 4 59 4 17-45 17-125s42-126 123-126zm0 227c63 0 89-41 89-101s-29-99-89-99c-61 0-89 39-89 99S79-25 140-24" id="ac"/><g id="l"><use transform="matrix(0.05,0,0,0.05,0,0)" xlink:href="#J"/><use transform="matrix(0.05,0,0,0.05,12,0)" xlink:href="#Z"/><use transform="matrix(0.05,0,0,0.05,24.950000000000003,0)" xlink:href="#ac"/><use transform="matrix(0.05,0,0,0.05,38.95,0)" xlink:href="#N"/><use transform="matrix(0.05,0,0,0.05,51.900000000000006,0)" xlink:href="#R"/></g><g id="m"><use transform="matrix(0.05,0,0,0.05,0,0)" xlink:href="#Y"/><use transform="matrix(0.05,0,0,0.05,12.950000000000001,0)" xlink:href="#Z"/><use transform="matrix(0.05,0,0,0.05,25.900000000000002,0)" xlink:href="#X"/><use transform="matrix(0.05,0,0,0.05,37.900000000000006,0)" xlink:href="#S"/><use transform="matrix(0.05,0,0,0.05,50.85000000000001,0)" xlink:href="#W"/><use transform="matrix(0.05,0,0,0.05,60.85,0)" xlink:href="#T"/><use transform="matrix(0.05,0,0,0.05,71.80000000000001,0)" xlink:href="#L"/><use transform="matrix(0.05,0,0,0.05,76.80000000000001,0)" xlink:href="#R"/><use transform="matrix(0.05,0,0,0.05,88.80000000000001,0)" xlink:href="#aa"/><use transform="matrix(0.05,0,0,0.05,98.80000000000001,0)" xlink:href="#M"/></g><g id="n"><use transform="matrix(0.05,0,0,0.05,0,0)" xlink:href="#Q"/><use transform="matrix(0.05,0,0,0.05,12,0)" xlink:href="#L"/><use transform="matrix(0.05,0,0,0.05,17,0)" xlink:href="#ac"/></g><path d="M195 0l-74-108L45 0H8l94-129-87-119h37l69 98 67-98h37l-84 118L233 0h-38" id="ad"/><g id="o"><use transform="matrix(0.05,0,0,0.05,0,0)" xlink:href="#V"/><use transform="matrix(0.05,0,0,0.05,10.950000000000001,0)" xlink:href="#R"/><use transform="matrix(0.05,0,0,0.05,22.950000000000003,0)" xlink:href="#ad"/><use transform="matrix(0.05,0,0,0.05,34.95,0)" xlink:href="#V"/><use transform="matrix(0.05,0,0,0.05,45.900000000000006,0)" xlink:href="#W"/><use transform="matrix(0.05,0,0,0.05,55.900000000000006,0)" xlink:href="#T"/><use transform="matrix(0.05,0,0,0.05,66.85000000000001,0)" xlink:href="#L"/><use transform="matrix(0.05,0,0,0.05,71.85000000000001,0)" xlink:href="#R"/><use transform="matrix(0.05,0,0,0.05,83.85000000000001,0)" xlink:href="#aa"/><use transform="matrix(0.05,0,0,0.05,93.85000000000001,0)" xlink:href="#M"/></g><g id="p"><use transform="matrix(0.05,0,0,0.05,0,0)" xlink:href="#T"/><use transform="matrix(0.05,0,0,0.05,10.950000000000001,0)" xlink:href="#K"/></g><path d="M266 0h-40l-56-210L115 0H75L2-248h35L96-30l15-64 43-154h32l59 218 59-218h35" id="ae"/><g id="q"><use transform="matrix(0.05,0,0,0.05,0,0)" xlink:href="#T"/><use transform="matrix(0.05,0,0,0.05,10.950000000000001,0)" xlink:href="#ac"/><use transform="matrix(0.05,0,0,0.05,24.950000000000003,0)" xlink:href="#aa"/><use transform="matrix(0.05,0,0,0.05,34.95,0)" xlink:href="#aa"/><use transform="matrix(0.05,0,0,0.05,44.95,0)" xlink:href="#ac"/><use transform="matrix(0.05,0,0,0.05,58.95,0)" xlink:href="#ae"/><use transform="matrix(0.05,0,0,0.05,75.9,0)" xlink:href="#U"/></g><path d="M137-103V0h-34v-103L8-248h37l75 118 75-118h37" id="af"/><g id="r"><use transform="matrix(0.05,0,0,0.05,0,0)" xlink:href="#P"/><use transform="matrix(0.05,0,0,0.05,14.950000000000001,0)" xlink:href="#X"/><use transform="matrix(0.05,0,0,0.05,26.950000000000003,0)" xlink:href="#N"/><use transform="matrix(0.05,0,0,0.05,39.900000000000006,0)" xlink:href="#af"/><use transform="matrix(0.05,0,0,0.05,51.900000000000006,0)" xlink:href="#W"/><use transform="matrix(0.05,0,0,0.05,61.900000000000006,0)" xlink:href="#V"/><use transform="matrix(0.05,0,0,0.05,72.5,0)" xlink:href="#ac"/><use transform="matrix(0.05,0,0,0.05,86.5,0)" xlink:href="#W"/><use transform="matrix(0.05,0,0,0.05,96.5,0)" xlink:href="#P"/><use transform="matrix(0.05,0,0,0.05,111.45,0)" xlink:href="#X"/><use transform="matrix(0.05,0,0,0.05,123.45,0)" xlink:href="#N"/><use transform="matrix(0.05,0,0,0.05,136.4,0)" xlink:href="#af"/><use transform="matrix(0.05,0,0,0.05,148.4,0)" xlink:href="#W"/><use transform="matrix(0.05,0,0,0.05,158.4,0)" xlink:href="#T"/><use transform="matrix(0.05,0,0,0.05,169.35,0)" xlink:href="#L"/><use transform="matrix(0.05,0,0,0.05,174.35,0)" xlink:href="#R"/><use transform="matrix(0.05,0,0,0.05,186.35,0)" xlink:href="#aa"/><use transform="matrix(0.05,0,0,0.05,196.35,0)" xlink:href="#M"/></g><path d="M137 0h-34L2-248h35l83 218 83-218h36" id="ag"/><g id="s"><use transform="matrix(0.05,0,0,0.05,0,0)" xlink:href="#T"/><use transform="matrix(0.05,0,0,0.05,9.950000000000001,0)" xlink:href="#X"/><use transform="matrix(0.05,0,0,0.05,20.6,0)" xlink:href="#ag"/><use transform="matrix(0.05,0,0,0.05,32.6,0)" xlink:href="#ac"/><use transform="matrix(0.05,0,0,0.05,46.6,0)" xlink:href="#S"/><use transform="matrix(0.05,0,0,0.05,59.550000000000004,0)" xlink:href="#L"/><use transform="matrix(0.05,0,0,0.05,64.55000000000001,0)" xlink:href="#V"/><use transform="matrix(0.05,0,0,0.05,75.50000000000001,0)" xlink:href="#R"/><use transform="matrix(0.05,0,0,0.05,87.50000000000001,0)" xlink:href="#U"/></g><g id="t"><use transform="matrix(0.05,0,0,0.05,0,0)" xlink:href="#T"/><use transform="matrix(0.05,0,0,0.05,9.950000000000001,0)" xlink:href="#X"/><use transform="matrix(0.05,0,0,0.05,20.6,0)" xlink:href="#ag"/><use transform="matrix(0.05,0,0,0.05,32.6,0)" xlink:href="#ac"/><use transform="matrix(0.05,0,0,0.05,46.6,0)" xlink:href="#S"/><use transform="matrix(0.05,0,0,0.05,59.550000000000004,0)" xlink:href="#L"/><use transform="matrix(0.05,0,0,0.05,64.55000000000001,0)" xlink:href="#V"/><use transform="matrix(0.05,0,0,0.05,75.50000000000001,0)" xlink:href="#R"/><use transform="matrix(0.05,0,0,0.05,87.50000000000001,0)" xlink:href="#W"/><use transform="matrix(0.05,0,0,0.05,97.50000000000001,0)" xlink:href="#Y"/><use transform="matrix(0.05,0,0,0.05,110.45,0)" xlink:href="#ac"/><use transform="matrix(0.05,0,0,0.05,124.45,0)" xlink:href="#P"/><use transform="matrix(0.05,0,0,0.05,139.4,0)" xlink:href="#P"/><use transform="matrix(0.05,0,0,0.05,154.35,0)" xlink:href="#R"/><use transform="matrix(0.05,0,0,0.05,166.35,0)" xlink:href="#N"/><use transform="matrix(0.05,0,0,0.05,179.29999999999998,0)" xlink:href="#V"/><use transform="matrix(0.05,0,0,0.05,190.24999999999997,0)" xlink:href="#U"/></g><path fill="#333" d="M30-248c87 1 191-15 191 75 0 78-77 80-158 76V0H30v-248zm33 125c57 0 124 11 124-50 0-59-68-47-124-48v98" id="ah"/><path fill="#333" d="M140-251c81 0 123 46 123 126C263-46 219 4 140 4 59 4 17-45 17-125s42-126 123-126zm0 227c63 0 89-41 89-101s-29-99-89-99c-61 0-89 39-89 99S79-25 140-24" id="ai"/><path fill="#333" d="M127-220V0H93v-220H8v-28h204v28h-85" id="aj"/><g id="u"><use transform="matrix(0.05,0,0,0.05,0,0)" xlink:href="#ah"/><use transform="matrix(0.05,0,0,0.05,12,0)" xlink:href="#ai"/><use transform="matrix(0.05,0,0,0.05,26,0)" xlink:href="#G"/><use transform="matrix(0.05,0,0,0.05,38,0)" xlink:href="#aj"/></g><g id="v"><use transform="matrix(0.05,0,0,0.05,0,0)" xlink:href="#T"/><use transform="matrix(0.05,0,0,0.05,10.950000000000001,0)" xlink:href="#K"/></g><g id="w"><use transform="matrix(0.05,0,0,0.05,0,0)" xlink:href="#X"/><use transform="matrix(0.05,0,0,0.05,12,0)" xlink:href="#O"/><use transform="matrix(0.05,0,0,0.05,24.950000000000003,0)" xlink:href="#V"/><use transform="matrix(0.05,0,0,0.05,35.900000000000006,0)" xlink:href="#Z"/><use transform="matrix(0.05,0,0,0.05,48.85000000000001,0)" xlink:href="#ac"/><use transform="matrix(0.05,0,0,0.05,62.85,0)" xlink:href="#S"/></g><g id="x"><use transform="matrix(0.05,0,0,0.05,0,0)" xlink:href="#T"/><use transform="matrix(0.05,0,0,0.05,10.950000000000001,0)" xlink:href="#ac"/><use transform="matrix(0.05,0,0,0.05,24.950000000000003,0)" xlink:href="#S"/><use transform="matrix(0.05,0,0,0.05,37.900000000000006,0)" xlink:href="#R"/><use transform="matrix(0.05,0,0,0.05,49.900000000000006,0)" xlink:href="#L"/><use transform="matrix(0.05,0,0,0.05,54.900000000000006,0)" xlink:href="#ab"/><use transform="matrix(0.05,0,0,0.05,68.9,0)" xlink:href="#N"/><use transform="matrix(0.05,0,0,0.05,81.85000000000001,0)" xlink:href="#W"/><use transform="matrix(0.05,0,0,0.05,91.85000000000001,0)" xlink:href="#K"/><use transform="matrix(0.05,0,0,0.05,103.85000000000001,0)" xlink:href="#R"/><use transform="matrix(0.05,0,0,0.05,115.85000000000001,0)" xlink:href="#af"/></g><g id="y"><use transform="matrix(0.05,0,0,0.05,0,0)" xlink:href="#V"/><use transform="matrix(0.05,0,0,0.05,10.950000000000001,0)" xlink:href="#L"/><use transform="matrix(0.05,0,0,0.05,15.950000000000001,0)" xlink:href="#V"/><use transform="matrix(0.05,0,0,0.05,26.900000000000002,0)" xlink:href="#aa"/><use transform="matrix(0.05,0,0,0.05,36.900000000000006,0)" xlink:href="#R"/></g><g id="z"><use transform="matrix(0.05,0,0,0.05,0,0)" xlink:href="#Y"/><use transform="matrix(0.05,0,0,0.05,12.950000000000001,0)" xlink:href="#ac"/><use transform="matrix(0.05,0,0,0.05,26.950000000000003,0)" xlink:href="#N"/><use transform="matrix(0.05,0,0,0.05,39.900000000000006,0)" xlink:href="#V"/><use transform="matrix(0.05,0,0,0.05,50.85000000000001,0)" xlink:href="#R"/><use transform="matrix(0.05,0,0,0.05,62.85,0)" xlink:href="#N"/><use transform="matrix(0.05,0,0,0.05,75.80000000000001,0)" xlink:href="#V"/></g><g id="A"><use transform="matrix(0.05,0,0,0.05,0,0)" xlink:href="#L"/><use transform="matrix(0.05,0,0,0.05,5,0)" xlink:href="#P"/><use transform="matrix(0.05,0,0,0.05,19.950000000000003,0)" xlink:href="#X"/><use transform="matrix(0.05,0,0,0.05,31.950000000000003,0)" xlink:href="#ab"/><use transform="matrix(0.05,0,0,0.05,45.95,0)" xlink:href="#R"/></g><g id="B"><use transform="matrix(0.05,0,0,0.05,0,0)" xlink:href="#Y"/><use transform="matrix(0.05,0,0,0.05,12.950000000000001,0)" xlink:href="#S"/><use transform="matrix(0.05,0,0,0.05,25.900000000000002,0)" xlink:href="#R"/><use transform="matrix(0.05,0,0,0.05,37.900000000000006,0)" xlink:href="#X"/><use transform="matrix(0.05,0,0,0.05,48.550000000000004,0)" xlink:href="#V"/><use transform="matrix(0.05,0,0,0.05,59.5,0)" xlink:href="#R"/><use transform="matrix(0.05,0,0,0.05,71.5,0)" xlink:href="#M"/><use transform="matrix(0.05,0,0,0.05,84.45,0)" xlink:href="#W"/><use transform="matrix(0.05,0,0,0.05,94.45,0)" xlink:href="#X"/><use transform="matrix(0.05,0,0,0.05,105.10000000000001,0)" xlink:href="#V"/></g><g id="C"><use transform="matrix(0.05,0,0,0.05,0,0)" xlink:href="#M"/><use transform="matrix(0.05,0,0,0.05,12.950000000000001,0)" xlink:href="#X"/><use transform="matrix(0.05,0,0,0.05,23.6,0)" xlink:href="#V"/><use transform="matrix(0.05,0,0,0.05,34.550000000000004,0)" xlink:href="#R"/><use transform="matrix(0.05,0,0,0.05,46.550000000000004,0)" xlink:href="#W"/><use transform="matrix(0.05,0,0,0.05,56.550000000000004,0)" xlink:href="#V"/><use transform="matrix(0.05,0,0,0.05,67.5,0)" xlink:href="#L"/><use transform="matrix(0.05,0,0,0.05,72.5,0)" xlink:href="#P"/><use transform="matrix(0.05,0,0,0.05,87.45,0)" xlink:href="#R"/><use transform="matrix(0.05,0,0,0.05,99.45,0)" xlink:href="#W"/><use transform="matrix(0.05,0,0,0.05,109.45,0)" xlink:href="#T"/><use transform="matrix(0.05,0,0,0.05,120.4,0)" xlink:href="#L"/><use transform="matrix(0.05,0,0,0.05,125.4,0)" xlink:href="#R"/><use transform="matrix(0.05,0,0,0.05,137.4,0)" xlink:href="#aa"/><use transform="matrix(0.05,0,0,0.05,147.4,0)" xlink:href="#M"/></g><path fill="#333" d="M212-179c-10-28-35-45-73-45-59 0-87 40-87 99 0 60 29 101 89 101 43 0 62-24 78-52l27 14C228-24 195 4 139 4 59 4 22-46 18-125c-6-104 99-153 187-111 19 9 31 26 39 46" id="ak"/><path fill="#333" d="M240 0l2-218c-23 76-54 145-80 218h-23L58-218 59 0H30v-248h44l77 211c21-75 51-140 76-211h43V0h-30" id="al"/><path fill="#333" d="M190 0L58-211 59 0H30v-248h39L202-35l-2-213h31V0h-41" id="am"/><g id="D"><use transform="matrix(0.05,0,0,0.05,0,0)" xlink:href="#ak"/><use transform="matrix(0.05,0,0,0.05,12.950000000000001,0)" xlink:href="#ai"/><use transform="matrix(0.05,0,0,0.05,26.950000000000003,0)" xlink:href="#al"/><use transform="matrix(0.05,0,0,0.05,41.900000000000006,0)" xlink:href="#al"/><use transform="matrix(0.05,0,0,0.05,56.85,0)" xlink:href="#H"/><use transform="matrix(0.05,0,0,0.05,68.85000000000001,0)" xlink:href="#am"/><use transform="matrix(0.05,0,0,0.05,81.80000000000001,0)" xlink:href="#aj"/></g><g id="E"><use transform="matrix(0.05,0,0,0.05,0,0)" xlink:href="#J"/><use transform="matrix(0.05,0,0,0.05,12,0)" xlink:href="#ac"/><use transform="matrix(0.05,0,0,0.05,26,0)" xlink:href="#U"/><use transform="matrix(0.05,0,0,0.05,38,0)" xlink:href="#V"/></g></defs></g></svg>